<svg width="50" height="50" fill="none" xmlns="http://www.w3.org/2000/svg"><g filter="url(#a)" stroke="#4C4CFF" stroke-linecap="round" stroke-linejoin="round"><path d="M40.5127 37.6331c.5006-.6135.0494-1.4933-.7423-1.5063-10.1064-.1664-18.5586.0204-29.0122.6564-.79078.0482-1.20298.9479-.675 1.5385C13.7464 42.4201 19.0738 45 25.0039 45c6.2556 0 11.8407-2.8709 15.5088-7.3669ZM7.64272 15.0579c-.39034.6799.18474 1.4715.96313 1.3781 11.56675-1.388 20.09205-1.8019 32.18235-1.0657.7867.0479 1.3162-.783.8794-1.439C38.0829 8.54757 31.9578 5 25.0039 5 17.5757 5 11.0932 9.04797 7.64272 15.0579Z"/></g><g filter="url(#b)" stroke="#4C4CFF" stroke-linecap="round" stroke-linejoin="round"><path d="M40.5127 37.6331c.5006-.6135.0494-1.4933-.7423-1.5063-10.1064-.1664-18.5586.0204-29.0122.6564-.79078.0482-1.20298.9479-.675 1.5385C13.7464 42.4201 19.0738 45 25.0039 45c6.2556 0 11.8407-2.8709 15.5088-7.3669ZM7.64272 15.0579c-.39034.6799.18474 1.4715.96313 1.3781 11.56675-1.388 20.09205-1.8019 32.18235-1.0657.7867.0479 1.3162-.783.8794-1.439C38.0829 8.54757 31.9578 5 25.0039 5 17.5757 5 11.0932 9.04797 7.64272 15.0579Z"/></g><path d="M40.5127 37.6331c.5006-.6135.0494-1.4933-.7423-1.5063-10.1064-.1664-18.5586.0204-29.0122.6564-.79078.0482-1.20298.9479-.675 1.5385C13.7464 42.4201 19.0738 45 25.0039 45c6.2556 0 11.8407-2.8709 15.5088-7.3669ZM7.64272 15.0579c-.39034.6799.18474 1.4715.96313 1.3781 11.56675-1.388 20.09205-1.8019 32.18235-1.0657.7867.0479 1.3162-.783.8794-1.439C38.0829 8.54757 31.9578 5 25.0039 5 17.5757 5 11.0932 9.04797 7.64272 15.0579Z" stroke="#4C4CFF" stroke-linecap="round" stroke-linejoin="round"/><path d="M40.5127 37.6331c.5006-.6135.0494-1.4933-.7423-1.5063-10.1064-.1664-18.5586.0204-29.0122.6564-.79078.0482-1.20298.9479-.675 1.5385C13.7464 42.4201 19.0738 45 25.0039 45c6.2556 0 11.8407-2.8709 15.5088-7.3669ZM7.64272 15.0579c-.39034.6799.18474 1.4715.96313 1.3781 11.56675-1.388 20.09205-1.8019 32.18235-1.0657.7867.0479 1.3162-.783.8794-1.439C38.0829 8.54757 31.9578 5 25.0039 5 17.5757 5 11.0932 9.04797 7.64272 15.0579Z" stroke="#fff" stroke-width=".5" stroke-linecap="round" stroke-linejoin="round"/><g filter="url(#c)"><path d="M44.8593 27.4656c.1285-1.0523-.6873-1.9541-1.744-2.0392-12.88-1.0381-22.931-1.2013-36.22561-.5019-1.05915.0557-1.90012.9351-1.80058 1.9911.14131 1.4989.44809 2.9498.90188 4.334.26151.7977 1.04057 1.2912 1.87957 1.2622 12.51254-.4335 22.18964-.465 34.32524-.1371.8395.0226 1.6151-.4771 1.8703-1.2772.3724-1.1677.6404-2.382.7932-3.6319Z" stroke="#E33CD5" stroke-linecap="round" stroke-linejoin="round"/></g><g filter="url(#d)"><path d="M44.8593 27.4656c.1285-1.0523-.6873-1.9541-1.744-2.0392-12.88-1.0381-22.931-1.2013-36.22561-.5019-1.05915.0557-1.90012.9351-1.80058 1.9911.14131 1.4989.44809 2.9498.90188 4.334.26151.7977 1.04057 1.2912 1.87957 1.2622 12.51254-.4335 22.18964-.465 34.32524-.1371.8395.0226 1.6151-.4771 1.8703-1.2772.3724-1.1677.6404-2.382.7932-3.6319Z" stroke="#E33CD5" stroke-linecap="round" stroke-linejoin="round"/></g><path d="M44.8593 27.4656c.1285-1.0523-.6873-1.9541-1.744-2.0392-12.88-1.0381-22.931-1.2013-36.22561-.5019-1.05915.0557-1.90012.9351-1.80058 1.9911.14131 1.4989.44809 2.9498.90188 4.334.26151.7977 1.04057 1.2912 1.87957 1.2622 12.51254-.4335 22.18964-.465 34.32524-.1371.8395.0226 1.6151-.4771 1.8703-1.2772.3724-1.1677.6404-2.382.7932-3.6319Z" stroke="#E33CD5" stroke-linecap="round" stroke-linejoin="round"/><path d="M44.8593 27.4656c.1285-1.0523-.6873-1.9541-1.744-2.0392-12.88-1.0381-22.931-1.2013-36.22561-.5019-1.05915.0557-1.90012.9351-1.80058 1.9911.14131 1.4989.44809 2.9498.90188 4.334.26151.7977 1.04057 1.2912 1.87957 1.2622 12.51254-.4335 22.18964-.465 34.32524-.1371.8395.0226 1.6151-.4771 1.8703-1.2772.3724-1.1677.6404-2.382.7932-3.6319Z" stroke="#fff" stroke-width=".5" stroke-linecap="round" stroke-linejoin="round"/><g filter="url(#e)"><path d="M5 20.5c2.66667-2 5.3333-2 8 0 2.6667 2 5.3333 2 8 0 2.6667-2 5.3333-2 8 0 2.6667 2 5.3333 2 8 0 2.6667-2 5.3333-2 8 0" stroke="#0CC" stroke-linecap="round" stroke-linejoin="round"/></g><g filter="url(#f)"><path d="M5 20.5c2.66667-2 5.3333-2 8 0 2.6667 2 5.3333 2 8 0 2.6667-2 5.3333-2 8 0 2.6667 2 5.3333 2 8 0 2.6667-2 5.3333-2 8 0" stroke="#0CC" stroke-linecap="round" stroke-linejoin="round"/></g><path d="M5 20.5c2.66667-2 5.3333-2 8 0 2.6667 2 5.3333 2 8 0 2.6667-2 5.3333-2 8 0 2.6667 2 5.3333 2 8 0 2.6667-2 5.3333-2 8 0" stroke="#0CC" stroke-linecap="round" stroke-linejoin="round"/><path d="M5 20.5c2.66667-2 5.3333-2 8 0 2.6667 2 5.3333 2 8 0 2.6667-2 5.3333-2 8 0 2.6667 2 5.3333 2 8 0 2.6667-2 5.3333-2 8 0" stroke="#fff" stroke-width=".5" stroke-linecap="round" stroke-linejoin="round"/><g filter="url(#g)" stroke="#4C4CFF"><ellipse cx="1" cy=".75" rx="1" ry=".75" transform="matrix(.885492 .464655 .464655 -.885492 17 40.1807)"/><ellipse cx="33.7076" cy="11.3542" rx="1.5" ry="1" transform="rotate(15 33.7076 11.3542)"/><ellipse cx="1" cy=".75" rx="1" ry=".75" transform="scale(1 -1) rotate(15 170.78023677 94.92737222)"/><ellipse cx="23.5" cy="12" rx="1.5" ry="1" transform="rotate(180 23.5 12)"/><ellipse cx="27.7076" cy="8.35415" rx="1.5" ry="1" transform="rotate(15 27.7076 8.35415)"/><ellipse cx="1" cy=".75" rx="1" ry=".75" transform="matrix(1 0 0 -1 24 42.5)"/><ellipse cx="16.7929" cy="10.5826" rx="1.5" ry="1" transform="rotate(-27.6879 16.7929 10.5826)"/></g><g filter="url(#h)" stroke="#4C4CFF"><ellipse cx="1" cy=".75" rx="1" ry=".75" transform="matrix(.885492 .464655 .464655 -.885492 17 40.1807)"/><ellipse cx="33.7076" cy="11.3542" rx="1.5" ry="1" transform="rotate(15 33.7076 11.3542)"/><ellipse cx="1" cy=".75" rx="1" ry=".75" transform="scale(1 -1) rotate(15 170.78023677 94.92737222)"/><ellipse cx="23.5" cy="12" rx="1.5" ry="1" transform="rotate(180 23.5 12)"/><ellipse cx="27.7076" cy="8.35415" rx="1.5" ry="1" transform="rotate(15 27.7076 8.35415)"/><ellipse cx="1" cy=".75" rx="1" ry=".75" transform="matrix(1 0 0 -1 24 42.5)"/><ellipse cx="16.7929" cy="10.5826" rx="1.5" ry="1" transform="rotate(-27.6879 16.7929 10.5826)"/></g><ellipse cx="1" cy=".75" rx="1" ry=".75" transform="matrix(.885492 .464655 .464655 -.885492 17 40.1807)" stroke="#4C4CFF"/><ellipse cx="33.7076" cy="11.3542" rx="1.5" ry="1" transform="rotate(15 33.7076 11.3542)" stroke="#4C4CFF"/><ellipse cx="1" cy=".75" rx="1" ry=".75" transform="scale(1 -1) rotate(15 170.78023677 94.92737222)" stroke="#4C4CFF"/><ellipse cx="23.5" cy="12" rx="1.5" ry="1" transform="rotate(180 23.5 12)" stroke="#4C4CFF"/><ellipse cx="27.7076" cy="8.35415" rx="1.5" ry="1" transform="rotate(15 27.7076 8.35415)" stroke="#4C4CFF"/><ellipse cx="1" cy=".75" rx="1" ry=".75" transform="matrix(1 0 0 -1 24 42.5)" stroke="#4C4CFF"/><ellipse cx="16.7929" cy="10.5826" rx="1.5" ry="1" transform="rotate(-27.6879 16.7929 10.5826)" stroke="#4C4CFF"/><ellipse cx="1" cy=".75" rx="1" ry=".75" transform="matrix(.885492 .464655 .464655 -.885492 17 40.1807)" stroke="#fff" stroke-width=".5"/><ellipse cx="33.7076" cy="11.3542" rx="1.5" ry="1" transform="rotate(15 33.7076 11.3542)" stroke="#fff" stroke-width=".5"/><ellipse cx="1" cy=".75" rx="1" ry=".75" transform="scale(1 -1) rotate(15 170.78023677 94.92737222)" stroke="#fff" stroke-width=".5"/><ellipse cx="23.5" cy="12" rx="1.5" ry="1" transform="rotate(180 23.5 12)" stroke="#fff" stroke-width=".5"/><ellipse cx="27.7076" cy="8.35415" rx="1.5" ry="1" transform="rotate(15 27.7076 8.35415)" stroke="#fff" stroke-width=".5"/><ellipse cx="1" cy=".75" rx="1" ry=".75" transform="matrix(1 0 0 -1 24 42.5)" stroke="#fff" stroke-width=".5"/><ellipse cx="16.7929" cy="10.5826" rx="1.5" ry="1" transform="rotate(-27.6879 16.7929 10.5826)" stroke="#fff" stroke-width=".5"/><defs><filter id="a" x="3.01208" y=".5" width="43.3186" height="49" filterUnits="userSpaceOnUse" color-interpolation-filters="sRGB"><feFlood flood-opacity="0" result="BackgroundImageFix"/><feBlend in="SourceGraphic" in2="BackgroundImageFix" result="shape"/><feGaussianBlur stdDeviation="2" result="effect1_foregroundBlur_80464_936"/></filter><filter id="b" x="3.01208" y=".5" width="43.3186" height="49" filterUnits="userSpaceOnUse" color-interpolation-filters="sRGB"><feFlood flood-opacity="0" result="BackgroundImageFix"/><feBlend in="SourceGraphic" in2="BackgroundImageFix" result="shape"/><feGaussianBlur stdDeviation="2" result="effect1_foregroundBlur_80464_936"/></filter><filter id="c" x=".580933" y="20" width="48.792" height="17.013" filterUnits="userSpaceOnUse" color-interpolation-filters="sRGB"><feFlood flood-opacity="0" result="BackgroundImageFix"/><feBlend in="SourceGraphic" in2="BackgroundImageFix" result="shape"/><feGaussianBlur stdDeviation="2" result="effect1_foregroundBlur_80464_936"/></filter><filter id="d" x=".580933" y="20" width="48.792" height="17.013" filterUnits="userSpaceOnUse" color-interpolation-filters="sRGB"><feFlood flood-opacity="0" result="BackgroundImageFix"/><feBlend in="SourceGraphic" in2="BackgroundImageFix" result="shape"/><feGaussianBlur stdDeviation="2" result="effect1_foregroundBlur_80464_936"/></filter><filter id="e" x=".5" y="14.5" width="49" height="12" filterUnits="userSpaceOnUse" color-interpolation-filters="sRGB"><feFlood flood-opacity="0" result="BackgroundImageFix"/><feBlend in="SourceGraphic" in2="BackgroundImageFix" result="shape"/><feGaussianBlur stdDeviation="2" result="effect1_foregroundBlur_80464_936"/></filter><filter id="f" x=".5" y="14.5" width="49" height="12" filterUnits="userSpaceOnUse" color-interpolation-filters="sRGB"><feFlood flood-opacity="0" result="BackgroundImageFix"/><feBlend in="SourceGraphic" in2="BackgroundImageFix" result="shape"/><feGaussianBlur stdDeviation="2" result="effect1_foregroundBlur_80464_936"/></filter><filter id="g" x="10.8851" y="2.81286" width="28.795" height="44.1871" filterUnits="userSpaceOnUse" color-interpolation-filters="sRGB"><feFlood flood-opacity="0" result="BackgroundImageFix"/><feBlend in="SourceGraphic" in2="BackgroundImageFix" result="shape"/><feGaussianBlur stdDeviation="2" result="effect1_foregroundBlur_80464_936"/></filter><filter id="h" x="10.8851" y="2.81286" width="28.795" height="44.1871" filterUnits="userSpaceOnUse" color-interpolation-filters="sRGB"><feFlood flood-opacity="0" result="BackgroundImageFix"/><feBlend in="SourceGraphic" in2="BackgroundImageFix" result="shape"/><feGaussianBlur stdDeviation="2" result="effect1_foregroundBlur_80464_936"/></filter></defs></svg>